<svg xmlns="http://www.w3.org/2000/svg" id="Capa_2" viewBox="0 0 208.8 50"><defs><style>      .st0 {        fill: #b3b3b3;      }      .st1 {        fill: gray;      }    </style></defs><g id="Capa_4"><g><g><path class="st0" d="M10,4.2v2.7H3.1v2.4h5v2.7H3.1v2.9h6.9v2.7H0V4.2h10Z"></path><path class="st0" d="M12.1,17.7V4.2h7.5c2.8,0,3.7,2,3.7,4.7s-1.2,4.5-3.7,4.5h-4.4v4.2h-3.1ZM18.5,10.9c.8,0,1.4-.6,1.4-2s-.5-2.1-1.3-2.1h-3.4v4h3.3Z"></path><path class="st0" d="M34.1,7.2c-.8-.2-2.2-.4-3.7-.4s-2.6.4-2.6,1.3.4,1.2,2.7,1.4c3.1.3,4.4,1.5,4.4,4.1s-1.8,4.4-6,4.4-3.3-.3-4.4-.6l.6-2.7c.9.2,2.2.4,3.7.4s2.6-.3,2.6-1.3-.4-1.3-2.9-1.5c-2.9-.3-4.2-1.3-4.2-3.7s1.9-4.6,5.9-4.6,3.2.3,4.3.6l-.6,2.7h0Z"></path></g><rect class="st1" x="41.8" y="2.8" width="1.9" height="25"></rect><g><path class="st1" d="M132.7,49.3c-.8-.4-1.4-1.1-1.9-1.8-.5-.8-.7-1.7-.7-2.6s.2-1.9.7-2.6,1.1-1.4,1.9-1.8,1.7-.7,2.7-.7,1.5.1,2.2.4c.7.3,1.2.7,1.7,1.2l-.9.9c-.8-.8-1.7-1.2-2.8-1.2s-1.4.2-2,.5c-.6.3-1.1.8-1.4,1.4-.3.6-.5,1.2-.5,2s.2,1.4.5,2,.8,1,1.4,1.4,1.3.5,2,.5c1.1,0,2.1-.4,2.8-1.2l.9.9c-.5.5-1,.9-1.7,1.2s-1.4.4-2.2.4-1.9-.2-2.7-.7h0Z"></path><path class="st1" d="M148,42.3v7.6h-1.3v-1.1c-.3.4-.6.7-1.1.9-.5.2-.9.3-1.5.3-1,0-1.8-.3-2.4-.8-.6-.6-.9-1.4-.9-2.5v-4.4h1.4v4.2c0,.7.2,1.3.5,1.7.4.4.9.6,1.5.6s1.3-.2,1.7-.7.6-1.1.6-1.9v-3.9h1.4Z"></path><path class="st1" d="M150.6,40.6c-.2-.2-.3-.4-.3-.6s0-.5.3-.6c.2-.2.4-.3.7-.3s.5,0,.7.3.3.4.3.6,0,.5-.3.7c-.2.2-.4.3-.7.3s-.5,0-.7-.3h0ZM150.6,42.3h1.4v7.6h-1.4v-7.6Z"></path><path class="st1" d="M161.8,39.2v10.6h-1.3v-1.2c-.3.4-.7.7-1.2,1-.5.2-1,.3-1.5.3s-1.4-.2-2-.5c-.6-.3-1-.8-1.4-1.4-.3-.6-.5-1.3-.5-2s.2-1.4.5-2,.8-1,1.4-1.4c.6-.3,1.2-.5,2-.5s1,.1,1.5.3.8.5,1.1.9v-4.2h1.4ZM159.2,48.4c.4-.2.7-.5.9-.9s.3-.9.3-1.4-.1-1-.3-1.4c-.2-.4-.5-.7-.9-.9-.4-.2-.8-.3-1.3-.3s-.9.1-1.3.3c-.4.2-.7.5-.9.9-.2.4-.3.9-.3,1.4s.1,1,.3,1.4c.2.4.5.7.9.9s.8.3,1.3.3.9-.1,1.3-.3Z"></path><path class="st1" d="M169.6,43c.6.5.8,1.3.8,2.3v4.6h-1.3v-1c-.2.4-.6.6-1,.8-.4.2-.9.3-1.5.3-.9,0-1.5-.2-2-.6s-.8-.9-.8-1.6.2-1.2.7-1.6c.5-.4,1.3-.6,2.3-.6h2.2v-.3c0-.6-.2-1-.5-1.4-.3-.3-.9-.5-1.5-.5s-.9,0-1.3.2c-.4.1-.8.3-1.1.6l-.6-1c.4-.3.9-.6,1.4-.7s1.1-.3,1.7-.3c1.1,0,1.9.3,2.4.8h0ZM168.2,48.6c.4-.2.7-.6.8-1v-1.1h-2.1c-1.2,0-1.7.4-1.7,1.2s.1.7.4.9.7.3,1.2.3,1-.1,1.4-.4h0Z"></path><path class="st1" d="M184,39.2v10.6h-1.3v-1.2c-.3.4-.7.7-1.2,1-.5.2-1,.3-1.5.3s-1.4-.2-2-.5c-.6-.3-1-.8-1.4-1.4-.3-.6-.5-1.3-.5-2s.2-1.4.5-2c.3-.6.8-1,1.4-1.4.6-.3,1.2-.5,2-.5s1,.1,1.5.3.8.5,1.1.9v-4.2h1.4ZM181.4,48.4c.4-.2.7-.5.9-.9s.3-.9.3-1.4-.1-1-.3-1.4c-.2-.4-.5-.7-.9-.9-.4-.2-.8-.3-1.3-.3s-.9.1-1.3.3c-.4.2-.7.5-.9.9-.2.4-.3.9-.3,1.4s.1,1,.3,1.4c.2.4.5.7.9.9s.8.3,1.3.3.9-.1,1.3-.3Z"></path><path class="st1" d="M193.4,46.5h-6.2c0,.7.4,1.2.9,1.6.5.4,1.1.6,1.9.6s1.6-.3,2.2-.9l.8.9c-.3.4-.8.7-1.3.9-.5.2-1.1.3-1.7.3s-1.5-.2-2.1-.5c-.6-.3-1.1-.8-1.4-1.4s-.5-1.3-.5-2,.2-1.4.5-2c.3-.6.8-1.1,1.4-1.4.6-.3,1.2-.5,2-.5s1.4.2,1.9.5c.6.3,1,.8,1.3,1.4s.5,1.3.5,2,0,.2,0,.4h0ZM188.1,44c-.4.4-.7.9-.8,1.6h4.9c0-.6-.3-1.2-.8-1.6-.4-.4-1-.6-1.7-.6s-1.2.2-1.7.6h0Z"></path><path class="st1" d="M203.5,49.4c-.2.2-.4.3-.7.4-.3,0-.6.1-.9.1-.8,0-1.4-.2-1.8-.6-.4-.4-.6-1-.6-1.8v-4.2h-1.3v-1.1h1.3v-1.7h1.4v1.7h2.2v1.1h-2.2v4.1c0,.4.1.7.3.9.2.2.5.3.9.3s.8-.1,1.1-.4l.4,1h0Z"></path><path class="st1" d="M205.2,40.6c-.2-.2-.3-.4-.3-.6s0-.5.3-.6.4-.3.7-.3.5,0,.7.3c.2.2.3.4.3.6s0,.5-.3.7-.4.3-.7.3-.5,0-.7-.3h0ZM205.2,42.3h1.4v7.6h-1.4v-7.6Z"></path></g><g><path class="st1" d="M61.6,3.6c2.1,0,4.9.3,6.6.8l-1,4.7c-1.1-.4-3.1-.6-4.5-.6-4.6,0-6.3.7-6.3,7s1.7,7.1,6.3,7.1,3.4-.3,4.5-.6l1,4.8c-1.8.5-4.5.8-6.6.8-7.3,0-10.8-2.8-10.8-12.1s3.5-11.8,10.8-11.8"></path><path class="st1" d="M83.8,26.2c-2.3.8-5.5,1.3-8,1.3-5.5,0-7.2-1.2-7.2-5.6s2.6-5.5,6.6-5.5,2.5.2,3.8.4c0-2.3-.5-3-3.8-3s-3.8.4-5.2.8l-.8-4c1.9-.5,4.7-.9,7.2-.9,5,0,7.4,1.5,7.4,6.5v9.9ZM76.2,23.7c.9,0,2-.2,2.8-.5v-3.2c-.8-.2-1.7-.2-2.7-.2-1.8,0-2.5.2-2.5,1.9s.4,2,2.4,2"></path><path class="st1" d="M91.7,27.1c0,5-2.3,6.6-7.6,6.6v-4.1c1.7,0,2.6-.7,2.6-2.4V9.8h5v17.3h0Z"></path><path class="st1" d="M109.2,26.2c-2.3.8-5.5,1.3-8,1.3-5.5,0-7.2-1.2-7.2-5.6s2.6-5.5,6.6-5.5,2.5.2,3.8.4c0-2.3-.5-3-3.8-3s-3.8.4-5.2.8l-.8-4c1.9-.5,4.7-.9,7.2-.9,5,0,7.4,1.5,7.4,6.5v9.9ZM101.6,23.7c.9,0,2-.2,2.8-.5v-3.2c-.8-.2-1.7-.2-2.7-.2-1.8,0-2.5.2-2.5,1.9s.4,2,2.4,2"></path><path class="st1" d="M125,26.6c-1.3.6-3.6.9-5.3.9-5,0-8.4-2.1-8.4-9s3.4-8.8,8.4-8.8,4,.3,5.3.7l-1,4.3c-.9-.4-2.4-.7-3.8-.7-2.5,0-3.7.4-3.7,4.6s1.2,4.5,3.7,4.5,2.9-.4,3.8-.8c0,0,1,4.2,1,4.2Z"></path><path class="st1" d="M125.5,18.5c0-6.9,2.8-8.8,8.1-8.8s8.2,1.9,8.2,8.8-2.7,9-8.2,9-8.1-2.1-8.1-9M130.6,18.6c0,4.2.7,4.9,3.1,4.9s3.1-.7,3.1-4.9-.7-4.9-3.1-4.9-3.1.5-3.1,4.9"></path><path class="st1" d="M144.2,11c1.8-.7,5-1.2,7.6-1.2,5.7,0,8.2,2,8.2,8.9s-3,8.9-7.1,8.9-2.8-.4-3.7-.8v6.6h-5V11h0ZM149.3,22.1c0,.8,1.1,1.3,2.6,1.3,2.4,0,3.1-1,3.1-4.6s-.8-4.8-3.2-4.8-2,.2-2.6.4v7.7h0Z"></path><rect class="st1" x="162.5" y="10.2" width="5" height="16.8"></rect><path id="SVGID" class="st1" d="M186.6,8.5c-.3,0-.5,0-.8,0-.8.1-1.7.3-2.8.5-1.2.3-2.5.6-4,1.1-.8.2-1.6.6-2.4.9-1.3.5-2.5,1.2-3.6,1.8-.4.2-.8.5-1.1.7-.3.2-.6.4-.9.6-.4.3-.7.6-1,.8-.2.3-.4.5-.5.7,0,.2,0,.5.2.5.5,0,1.4-.3,2.4-.7,1.3-.5,2.7-1,2.9-.5,0,.2,0,.5-.2.9-1,2.1-1.8,4.3-2.4,6.6-.6,2.3-1,4.7-1.3,7.2,0,.8.4,1.2.8.7.1-.1.2-.3.3-.5,1.1-2.4,2.7-5.2,3.8-6.8.9-1.3,1.7-1.4,2.1-.8.2.3.4.5.7.7.2.2.5.5.8.7.8.6,1.8,1,2.8,1.1.4,0,.8,0,1.2,0,1.3-.2,2.5-.7,3.4-1.2.7-.4,1.2-.9,1.5-1.3.1-.2.2-.4.2-.5s0,0,0,0c-.2-.6-1.2,0-1.5.1,0,0,0,0,0,0-.8.3-1.3.6-2.4.5-1.6,0-2.6-.8-3.2-2-.4-.8-.6-1.9-.6-3,0-.9.2-1.8.5-2.5.4-1,1-1.8,1.7-2.6.4-.4.8-.8,1.2-1.1,1.9-1.4,3.5-1.3,4.3-1.7.1,0,.3-.2.3-.3,0-.2.1-.3,0-.4,0-.1-.2-.2-.3-.3,0,0-.1,0-.2,0-.3,0-.6-.1-1.1-.1s-.6,0-.9,0"></path><path id="SVGID-2" class="st1" d="M205.5,6.8c-.3,0-.7,0-1.1.1-1,.1-2.1.4-3.5.7-1.5.3-3.1.8-5.1,1.4-1,.3-2,.7-3.1,1.1-1.6.7-3.2,1.5-4.5,2.2-.5.3-1,.6-1.4.9-.4.3-.8.5-1.1.8-.5.4-.9.7-1.2,1-.3.3-.5.6-.6.9-.1.3,0,.6.3.7.6,0,1.8-.4,3-.9,1.7-.6,3.4-1.3,3.6-.6,0,.2,0,.6-.2,1.2-1.2,2.6-2.2,5.4-3,8.3-.8,2.9-1.3,5.9-1.7,9-.1,1,.5,1.5,1.1.9.2-.1.3-.4.4-.7,1.4-3,3.4-6.5,4.8-8.6,1.1-1.7,2.1-1.7,2.7-1,.3.3.5.7.8.9.3.3.7.6,1,.9,1,.7,2.3,1.3,3.6,1.4.5,0,1,0,1.5,0,1.6-.2,3.1-.8,4.2-1.5.9-.5,1.5-1.1,1.8-1.6.2-.3.3-.5.3-.7s0,0,0-.1c-.3-.8-1.5-.1-1.9.1,0,0-.1,0-.1,0-1,.4-1.6.7-3,.6-2-.1-3.3-1.1-4-2.5-.6-1.1-.8-2.4-.7-3.8,0-1.2.3-2.2.7-3.2.5-1.3,1.3-2.3,2.1-3.2.5-.5,1-1,1.5-1.3,2.4-1.7,4.4-1.6,5.4-2.2.2,0,.3-.2.4-.4.1-.2.1-.4,0-.5,0-.2-.2-.3-.4-.4,0,0-.2,0-.3,0-.3-.1-.8-.2-1.4-.2s-.7,0-1.1,0"></path><path class="st0" d="M91.7,5.4c0,1.4-1.2,2.6-2.6,2.6s-2.6-1.2-2.6-2.6,1.2-2.6,2.6-2.6,2.6,1.2,2.6,2.6"></path><path class="st0" d="M167.6,5.4c0,1.4-1.2,2.6-2.6,2.6s-2.6-1.2-2.6-2.6,1.2-2.6,2.6-2.6,2.6,1.2,2.6,2.6"></path><path class="st0" d="M181.2,4.7c0,1.8-1.5,3.3-3.3,3.3s-3.3-1.5-3.3-3.3,1.5-3.3,3.3-3.3,3.3,1.5,3.3,3.3"></path><path class="st0" d="M198.5,4c0,2.2-1.8,4-4,4s-4-1.8-4-4,1.8-4,4-4,4,1.8,4,4"></path></g></g></g></svg>