<svg xmlns="http://www.w3.org/2000/svg" id="Capa_2" data-name="Capa 2" viewBox="0 0 80.33 50"><defs><style>      .cls-1 {        fill: #9c9c9c;      }      .cls-2 {        fill: #fff;      }      .cls-3 {        fill: #717171;      }      .cls-4 {        fill: #a09f9f;      }      .cls-5 {        fill: #9b9b9b;      }    </style></defs><g id="Capa_1-2" data-name="Capa 1"><g><path class="cls-2" d="M80.32,36.66c0-.49-.02-.99-.1-1.47-.28-1.72-1.1-3.1-2.68-3.92-1-.52-2.07-.66-3.19-.45-.74.14-1.43.39-2.05.83-.24.17-.47.37-.71.57-.1-.06-.18-.11-.28-.17.04-.14.08-.26.1-.39.08-.41.22-.83.21-1.24-.04-1.03-.45-1.92-1.24-2.62-.1-.09-.18-.24-.21-.37-.28-1.51-.97-2.8-2.09-3.85-.52-.49-1.13-.87-1.78-1.17-.17-.08-.28-.18-.28-.38,0-.09-.04-.18-.05-.26-.29-1.77-.78-3.49-1.44-5.15-.82-2.05-1.88-3.98-3.18-5.76-1.3-1.78-2.78-3.38-4.48-4.78-2.54-2.1-5.38-3.68-8.52-4.72-2.23-.74-4.51-1.16-6.84-1.28-1.36-.07-2.73-.05-4.09.11-1.71.2-3.39.53-5.03,1.04-2.66.83-5.13,2.05-7.39,3.67-3.01,2.15-5.46,4.81-7.35,7.99-1.21,2.04-2.13,4.21-2.75,6.5-.36,1.32-.61,2.66-.75,4.02-.02.21-.13.32-.31.4-.84.37-1.56.91-2.17,1.59-.85.93-1.37,2.02-1.62,3.25-.02.07-.05.15-.08.24-.1-.02-.18-.03-.25-.06-.6-.23-1.2-.46-1.8-.7-.8-.32-1.58-.06-2.01.69-.06.1-.13.19-.2.3-.06-.06-.09-.09-.11-.12-.41-.62-1.01-.79-1.71-.71-.7.08-1.39.17-2.09.24-1.01.09-1.62.73-1.64,1.73-.04,1.82-.09,3.64-.12,5.45-.02,1.72-.02,3.44-.03,5.15,0,.13,0,.26.02.39.04.39.22.7.5.97.38.36.84.43,1.34.43,5.07,0,10.13,0,15.2,0h.53c.01.2.03.35.03.5,0,1.65,0,3.3,0,4.94,0,.14,0,.28,0,.42.04.84.68,1.48,1.51,1.51.17,0,.34,0,.51,0,13.61,0,27.22,0,40.83,0,.24,0,.48,0,.72,0,.41,0,.76-.17,1.05-.46.38-.38.53-.84.53-1.37,0-1.72,0-3.44,0-5.16v-.38c.17,0,.3-.02.43-.02,1.03,0,2.05,0,3.08,0,4.11,0,8.22,0,12.33,0,.34,0,.68-.05.98-.25.52-.35.75-.84.75-1.46,0-1.42,0-2.83,0-4.25Z"></path><path class="cls-3" d="M64.52,21.85c-1.25-.16-2.45,0-3.64.48-1.66-7-5.66-12.08-12.2-15.07-3.16-1.44-6.52-2-9.99-1.73-4.93.39-9.24,2.26-12.85,5.65-3.61,3.39-5.73,7.57-6.46,12.48-.63-.15-1.23-.34-1.83-.43-.6-.08-1.22-.06-1.87-.08.21-1.84.67-3.61,1.32-5.33,1.68-4.44,4.4-8.12,8.17-11.01C33.09.72,43.7.13,52.09,4.72c4.32,2.36,7.64,5.73,9.99,10.06,1.16,2.13,2.51,6.05,2.43,7.07Z"></path><path class="cls-1" d="M20.75,23.69c.11-.59.21-1.18.35-1.76.78-3.24,2.28-6.11,4.51-8.58,2.5-2.77,5.55-4.7,9.15-5.74,1.36-.4,2.76-.63,4.18-.73,2.18-.16,4.32.08,6.42.63,2.65.7,5.04,1.93,7.18,3.64,1.45,1.15,2.71,2.49,3.77,4,1.29,1.83,2.27,3.82,2.86,5.98.15.55.26,1.11.39,1.67.04.19-.02.31-.17.44-.31.28-.61.58-.91.88-.06.05-.12.11-.2.18-.08-.09-.16-.16-.23-.24-.42-.56-.9-1.05-1.44-1.49-.13-.11-.22-.31-.27-.48-.32-1.17-.76-2.29-1.33-3.36-1.44-2.71-3.48-4.88-6.1-6.48-2.01-1.23-4.19-1.99-6.52-2.28-3.58-.45-6.96.18-10.13,1.91-2.16,1.18-3.96,2.76-5.42,4.74-.72.98-1.35,2.02-1.83,3.14-.09.21-.22.34-.43.43-1.64.65-2.84,1.78-3.62,3.37-.03.06-.07.11-.11.16-.02,0-.05-.02-.07-.02Z"></path><path class="cls-5" d="M61.16,29.39c.75.06,1.49.22,2.15.62.89.54,1.4,1.31,1.49,2.37.09,1.05-.16,1.98-.86,2.76-.25.28-.57.5-.87.74-.08.07-.18.12-.32.21.93.97,1.84,1.91,2.74,2.85-.13.2-3.16,1.74-3.55,1.79-.18-.31-.37-.64-.55-.97-.42-.75-.84-1.51-1.26-2.26-.08-.14-.16-.27-.36-.27-.25,0-.36.09-.4.35-.13.79-.26,1.58-.39,2.37-.01.07-.04.13-.08.25-1.25-.14-2.5.02-3.76-.19.02-.14.03-.24.05-.34.19-.79.38-1.58.57-2.37.32-1.33.64-2.65.96-3.98.24-1,.49-2,.73-3.01.05-.2.15-.33.36-.4.61-.2,1.22-.37,1.86-.46.5-.07,1-.11,1.5-.08M59.81,34.5c.39.11.7.02,1-.09.61-.23.95-.76.89-1.41-.04-.44-.31-.75-.74-.83-.15-.03-.3-.02-.45-.03-.19,0-.3.07-.33.27-.06.38-.14.75-.21,1.12-.06.31-.11.63-.16.96Z"></path><path class="cls-5" d="M29.06,19.91c-.81-.09-1.57-.17-2.4-.26.83-1.62,1.87-3.04,3.18-4.25,2.93-2.68,6.39-4.1,10.36-4.1,7.44,0,12.72,5.16,14.32,10.16-.13-.02-.24-.03-.36-.05-.62-.07-1.23-.14-1.85-.19-.21-.02-.32-.07-.41-.27-.5-1.06-1.14-2.03-1.9-2.92-1.1-1.28-2.41-2.3-3.91-3.06-.88-.45-1.8-.78-2.76-1.03-1.35-.35-2.71-.42-4.09-.36-.55.03-1.09.14-1.64.25-1.58.3-3.03.91-4.38,1.77-1.24.79-2.3,1.77-3.21,2.93-.29.37-.54.77-.81,1.16-.06.09-.13.17-.15.21Z"></path><path class="cls-3" d="M11.09,38.51c-.99.83-1.93,1.6-2.9,2.41-.97-1.26-1.9-2.48-2.84-3.7-.03.01-.06.02-.1.04.11.96.22,1.91.33,2.86-.34.13-3.71.3-4.12.2.08-3.39.16-6.8.24-10.24.87-.11,1.7-.27,2.58-.29.19,1.37.38,2.69.57,4.02.03,0,.06.01.09.02.77-1.43,1.54-2.87,2.33-4.34,1.17.45,2.3.89,3.49,1.35-.54.81-1.15,1.49-1.71,2.22-.56.73-1.14,1.45-1.74,2.22,1.27,1.08,2.5,2.14,3.8,3.25Z"></path><path class="cls-4" d="M30.83,32.26c-.06-.39-.11-.73-.16-1.08-.06-.37-.11-.74-.17-1.1-.04-.2.03-.32.23-.39.96-.35,1.92-.7,2.89-1.05.09-.03.19-.04.33-.08.02.22.06.41.06.59.03.97.05,1.95.08,2.92.05,1.59.11,3.17.16,4.76.02.65.04,1.31.07,1.96,0,.17-.07.28-.21.37-.92.57-1.91.94-2.98,1.07-.79.1-1.57.03-2.32-.22-1.17-.39-1.94-1.19-2.25-2.39-.26-1.01-.26-2.03.04-3.03.42-1.41,1.64-2.34,3.11-2.37.26,0,.52.03.78.04.1,0,.2,0,.36,0ZM31.29,37.29c-.1-.7-.19-1.38-.3-2.06-.01-.08-.13-.19-.21-.21-.58-.14-1.22.28-1.32.86-.09.52.16,1.11.61,1.38.38.23.79.26,1.22.04Z"></path><path class="cls-5" d="M21.59,40.08c.06-.2.12-.38.16-.56.22-.89.46-1.79.65-2.69.08-.37.04-.76.02-1.14-.02-.4-.27-.68-.61-.77-.42-.1-.81.03-1.04.36-.28.41-.33.88-.36,1.35-.06.88-.09,1.76-.12,2.65,0,.22-.1.33-.31.37-.57.12-1.14.24-1.71.36-.25.06-.51.13-.76.18-.11.03-.23.03-.39.06.02-.29.03-.54.05-.78.02-.22.07-.43.08-.65.07-.99.13-1.98.19-2.97.01-.22.02-.44.04-.66.05-.69.1-1.38.13-2.07.01-.2.06-.35.26-.43.7-.29,1.41-.59,2.11-.88.04-.02.1-.01.18-.02.13.55-.12,1.12.08,1.65.3-.25.55-.53.85-.73.76-.51,1.59-.71,2.49-.46.69.19,1.13.68,1.4,1.31.39.91.41,1.86.31,2.84-.1,1.01-.33,1.98-.65,2.93-.07.22-.15.44-.26.64-.05.09-.18.19-.27.19-.75.02-1.51.01-2.26,0-.07,0-.15-.04-.25-.07Z"></path><path class="cls-3" d="M39.56,37.21c.44.33.88.4,1.32.39.44-.01.87-.1,1.34-.16-.02.07-.02.14-.05.19-.44.78-.87,1.56-1.32,2.34-.07.12-.21.23-.34.26-1.31.28-2.55.13-3.63-.69-.96-.73-1.45-1.73-1.53-2.92-.07-1.01.07-1.99.65-2.86.66-.99,1.61-1.5,2.76-1.64,1.09-.14,2.13.05,3.01.77.69.57,1.08,1.31,1.19,2.2.02.2-.07.29-.23.38-.87.48-1.74.96-2.62,1.44-.16.09-.32.19-.54.32ZM38.29,35.75c.1-.05.19-.08.27-.13.33-.2.67-.41,1-.61.25-.16.26-.27.08-.5-.29-.37-.86-.43-1.24-.12-.41.34-.48.94-.11,1.37Z"></path><path class="cls-3" d="M75.28,32.24c1.58.01,2.82.95,3.29,2.53.34,1.13.35,2.26-.11,3.36-.52,1.26-1.48,1.96-2.82,2.16-.64.1-1.27.05-1.86-.2-1.07-.45-1.65-1.31-1.93-2.39-.25-.94-.25-1.88-.02-2.83.33-1.37,1.44-2.38,2.83-2.56.21-.03.42-.05.63-.07ZM75.3,34.21c-.69,0-1.11.44-1.11,1.17,0,.69.43,1.17,1.06,1.17.62,0,1.1-.52,1.1-1.19,0-.55-.36-1.2-1.05-1.14Z"></path><path class="cls-4" d="M50.67,21.46c-.56.25-1.05.47-1.56.7-1.87-3.37-4.66-5.35-8.55-5.48-3.87-.13-6.79,1.65-8.88,4.85-.07-.03-.11-.04-.14-.06-.4-.3-.79-.61-1.24-.95.52-.97,1.24-1.8,2.05-2.54,2.21-2.01,4.81-3.06,7.8-3.08,2.99-.02,5.61.99,7.85,2.97,1.13,1,2.03,2.18,2.68,3.6Z"></path><path class="cls-1" d="M49.63,37.27c-.9-.51-1.8-1.03-2.75-1.57,0,.16-.02.28,0,.39.25,1.28.51,2.56.77,3.84.02.09.02.17.05.33-1.33.02-2.63-.09-3.98-.1.03-.44.04-.81.07-1.18.06-.83.12-1.66.19-2.49.07-.84.14-1.68.21-2.52.02-.21.02-.42.04-.63.01-.17.07-.31.25-.38.7-.25,1.4-.51,2.1-.76.05-.02.12-.01.24-.03.03.36.06.7.09,1.11.93-.37,1.81-.72,2.73-1.08.03.18.06.3.06.43.02,1.39.04,2.77.06,4.16,0,.14-.02.27-.03.41l-.08.07Z"></path><path class="cls-3" d="M40.23,22.13c.1-.1.16-.17.22-.23.53-.57,1.34-.75,2.01-.45.66.3,1.02,1,.96,1.79-.06.74-.36,1.35-.9,1.85-.53.49-1.08.96-1.61,1.45-.22.19-.43.39-.65.59-.09-.05-.16-.08-.22-.13-.74-.66-1.49-1.32-2.21-2-.7-.66-.91-1.49-.74-2.42.1-.58.59-1.1,1.16-1.21.63-.12,1.2,0,1.67.46.1.1.2.19.32.31Z"></path><path class="cls-1" d="M11.5,32.92c1.52.17,3.04.34,4.53.51.11.3-.27,5.51-.45,6.33-.81.21-1.64.43-2.54.67-.55-2.5-1.09-4.96-1.62-7.42.03-.03.06-.06.08-.09Z"></path><path class="cls-5" d="M21.23,46.71v1.16h-1.67v-4.84c.11,0,.2-.02.29-.02.83,0,1.67-.03,2.5,0,.67.03,1.25.3,1.6.91.5.86.22,2.21-.91,2.58-.51.17-1.05.28-1.6.21-.05,0-.1,0-.21,0ZM21.28,44.29c-.01.16-.03.3-.04.44,0,.71.1.8.8.67,0,0,.02,0,.03,0,.27-.06.46-.27.47-.52.01-.27-.16-.53-.43-.57-.26-.04-.53,0-.83,0Z"></path><path class="cls-5" d="M39.37,43.27c-.18.43-.34.79-.49,1.16-.32-.1-.59-.22-.87-.27-.26-.05-.54-.05-.8-.03-.16,0-.33.09-.35.28-.01.18.15.24.3.28.33.08.66.15.99.23.42.1.84.22,1.13.58.55.69.32,1.74-.49,2.16-.29.15-.62.26-.94.29-.86.07-1.73.07-2.53-.34-.04-.02-.09-.05-.18-.1.17-.38.34-.76.51-1.15.31.1.57.24.85.28.38.06.77.07,1.16.07.08,0,.23-.11.23-.18,0-.09-.07-.25-.15-.28-.27-.1-.56-.15-.84-.24-.35-.11-.73-.19-1.04-.37-.89-.51-.87-1.7-.09-2.31.43-.33.91-.49,1.46-.48.48.01.97-.05,1.43.12.21.08.42.17.69.28Z"></path><path class="cls-5" d="M48.67,47.84c-.49.08-.99.05-1.52,0-.02-.15-.04-.27-.04-.38,0-.49,0-.98,0-1.48,0-.1,0-.2-.03-.3-.08-.27-.23-.38-.47-.38-.24,0-.47.15-.52.38-.05.24-.08.49-.09.74-.01.41,0,.82,0,1.23,0,.05-.02.1-.04.16-.06.02-.13.05-.19.06-.34,0-.68,0-1.02,0-.18,0-.28-.09-.28-.28,0-.08,0-.16,0-.24,0-1.41,0-2.81,0-4.22,0-.09,0-.18,0-.27,0-.14.08-.23.23-.23.35,0,.7,0,1.05,0,.2,0,.26.12.26.3,0,.34,0,.68,0,1.02,0,.1.02.21.03.33.24-.09.44-.19.64-.25.76-.25,1.81.13,1.98,1.21.12.81.06,1.62.07,2.43,0,.04-.02.08-.05.16Z"></path><path class="cls-1" d="M15.52,30.47c.09,1-.76,2.06-2.01,2.07-1.13.01-2.08-.92-2.08-2.03,0-1.25,1.07-2.08,2.1-2.07,1.12,0,2.09,1.07,1.99,2.03Z"></path><g><path class="cls-4" d="M65.98,32.93c1.59.18,3.1.35,4.64.52,0,.26.01.47,0,.68-.14,1.74-.28,3.48-.42,5.22-.03.33-.07.39-.39.48-.63.17-1.26.34-1.89.5-.09.02-.17.03-.29.06-.05-.11-.1-.2-.12-.3-.48-2.18-.95-4.35-1.42-6.53-.04-.18-.06-.36-.1-.62Z"></path><path class="cls-4" d="M68.05,28.47c.91-.04,2,.68,2.03,2.03.02,1.1-.93,2.04-2.03,2.04-1.12,0-2.04-.91-2.05-2.01-.01-1.18.99-2.12,2.06-2.05Z"></path></g><path class="cls-5" d="M51.54,48c-.6-.02-1.14-.18-1.6-.57-.62-.53-.78-1.22-.59-1.96.18-.71.68-1.16,1.38-1.38.74-.23,1.45-.16,2.12.23.63.37.93.98.95,1.68.02.79-.6,1.57-1.35,1.8-.29.09-.6.13-.9.19ZM50.92,45.99s0,.09,0,.15c.03.38.27.6.65.59.33-.01.53-.22.6-.63.07-.43-.17-.83-.53-.87-.4-.05-.76.21-.71.76Z"></path><path class="cls-5" d="M56.33,48c-.74-.04-1.37-.25-1.83-.85-.84-1.09-.33-2.61.95-3.03.74-.24,1.46-.22,2.15.17.69.39,1.05,1.13.95,1.99-.08.71-.65,1.36-1.38,1.55-.28.07-.56.11-.85.17ZM56.94,46s0,0,0,0c0-.08,0-.16-.01-.24-.03-.31-.24-.51-.55-.55-.26-.03-.57.15-.63.42-.05.21-.05.44-.02.65.06.33.34.49.7.46.28-.03.46-.23.49-.55,0-.06,0-.12,0-.18Z"></path><path class="cls-5" d="M29.43,46.37c.11.31.53.53.84.47.03,0,.06-.02.09-.03.23-.06.52-.24.67-.15.29.15.49.45.74.69-.28.4-.68.54-1.08.59-.62.07-1.23.05-1.82-.23-.64-.3-1.28-1.18-1.03-2.12.22-.84.73-1.31,1.56-1.52.57-.15,1.1-.1,1.61.15.69.33,1.06.9,1.09,1.67.02.43-.04.49-.47.5-.67,0-1.34,0-2.02,0-.05,0-.1,0-.17.01ZM30.58,45.55c-.09-.38-.28-.51-.66-.49-.29.02-.45.16-.49.49h1.15Z"></path><path class="cls-5" d="M44.01,46.84c-.19.56-.57.86-1.06,1.01-.49.16-1,.15-1.51.02-.37-.09-.69-.24-.98-.49-.9-.81-.79-2.49.38-3.07.93-.47,1.85-.49,2.72.15.21.16.38.36.42.67-.37.18-.74.37-1.15.57-.09-.1-.15-.2-.24-.29-.21-.2-.46-.24-.72-.14-.27.1-.37.32-.37.6,0,.09,0,.18,0,.27,0,.26.12.46.35.55.25.09.52.09.73-.13.08-.08.16-.17.27-.29.38.18.75.36,1.15.56Z"></path><path class="cls-5" d="M60.66,42.64v5.23c-.48,0-.93,0-1.39,0-.06,0-.13-.11-.15-.19-.03-.08-.01-.18-.01-.27,0-1.42,0-2.85,0-4.27,0-.47.02-.49.5-.49.35,0,.69,0,1.06,0Z"></path><path class="cls-5" d="M26.27,44.08c.02.14.03.23.05.36.34-.32.72-.44,1.19-.44v1.3c-.23.04-.43.06-.64.11-.33.08-.45.26-.45.6,0,.49,0,.98,0,1.47,0,.33-.07.39-.39.39-.38,0-.76,0-1.16,0-.02-.16-.06-.28-.06-.39,0-1,0-2.01,0-3.01,0-.37.04-.4.39-.4.36,0,.72,0,1.08,0Z"></path><path class="cls-5" d="M34.75,45.3v1.14c-.69.06-1.35.09-2.03-.01v-1.12c.68-.04,1.33-.02,2.03-.01Z"></path></g></g></svg>